<?xml version="1.0" encoding="UTF-8"?>
<!DOCTYPE svg PUBLIC "-//W3C//DTD SVG 1.1//EN" "http://www.w3.org/Graphics/SVG/1.1/DTD/svg11.dtd">
<!-- Creator: CorelDRAW X7 -->
<svg xmlns="http://www.w3.org/2000/svg" xml:space="preserve" width="100mm" height="100mm" version="1.1" style="shape-rendering:geometricPrecision; text-rendering:geometricPrecision; image-rendering:optimizeQuality; fill-rule:evenodd; clip-rule:evenodd"
viewBox="0 0 10000 10000"
 xmlns:xlink="http://www.w3.org/1999/xlink">
 <defs>
  <style type="text/css">
   <![CDATA[
    .fil8 {fill:none}
    .fil5 {fill:#2B2A29}
    .fil2 {fill:#FFF7B2}
    .fil6 {fill:#A75F4A}
    .fil3 {fill:#E31E24}
    .fil7 {fill:#E31E24}
    .fil4 {fill:#61382A}
    .fil1 {fill:#61382A}
    .fil0 {fill:url(#id0)}
   ]]>
  </style>
  <radialGradient id="id0" gradientUnits="userSpaceOnUse" gradientTransform="matrix(-1.03156 -0.973486 0.973486 -1.03156 5290 15025)" cx="5000" cy="5000" r="2239.98" fx="5000" fy="5000">
   <stop offset="0" style="stop-opacity:1; stop-color:#FEFEFE"/>
   <stop offset="0.690196" style="stop-opacity:1; stop-color:#7FC5E8"/>
   <stop offset="1" style="stop-opacity:1; stop-color:#008DD2"/>
  </radialGradient>
 </defs>
 <g id="Warstwa_x0020_1">
  <metadata id="CorelCorpID_0Corel-Layer"/>
  <g id="_486232288">
   <path class="fil0" d="M5000 2053c1628,0 2947,1319 2947,2947 0,1628 -1319,2947 -2947,2947 -1628,0 -2947,-1319 -2947,-2947 0,-1628 1319,-2947 2947,-2947z"/>
   <path class="fil1" d="M5848 4603c40,0 72,32 72,72l0 0c0,40 -32,73 -72,73l-773 0 0 449c0,179 125,294 298,294 20,0 36,17 36,37l0 20c0,20 -16,36 -36,36 -259,0 -487,0 -746,0 -20,0 -36,-16 -36,-36l0 -20c0,-20 16,-37 36,-37 173,0 298,-115 298,-294l0 -449 -773 0c-40,0 -72,-33 -72,-73l0 0c0,-40 32,-72 72,-72 576,0 1120,0 1696,0z"/>
   <path class="fil2" d="M4278 4015l1414 0c34,0 61,29 61,65l0 477c0,5 0,10 -1,15l-1534 0c-1,-5 -2,-10 -2,-15l0 -477c0,-36 28,-65 62,-65z"/>
   <path class="fil2" d="M4502 3612l965 0c35,0 63,29 63,65l0 304 -1091 0 0 -304c0,-36 29,-65 63,-65z"/>
   <path class="fil2" d="M4744 3238l10 0c10,36 35,60 78,50 40,-9 72,-29 101,-50l128 0c30,21 62,42 103,52 42,9 67,-15 78,-50 32,7 56,36 56,70l0 274 -626 0 0 -274c0,-39 32,-72 72,-72z"/>
   <path class="fil3" d="M4744 3238l10 0c8,28 25,49 51,52l-133 290 0 -270c0,-39 32,-72 72,-72zm250 0l67 0c23,17 48,33 77,44l-139 302 -164 0 159 -346zm302 57c1,5 2,10 2,15l0 274 -134 0 132 -289z"/>
   <path class="fil3" d="M3822 5965c5,7 8,14 10,22 1,7 2,15 2,23 0,2 0,5 0,7 -1,3 -1,6 -1,8 -2,14 -6,28 -12,42 -7,13 -13,25 -21,36 -13,18 -26,36 -38,54 -13,17 -26,35 -39,53l-68 -48c13,-18 25,-36 38,-54 13,-18 26,-36 39,-53 2,-3 4,-6 6,-9 1,-3 3,-7 5,-10 1,-4 3,-8 4,-12 2,-4 3,-8 3,-12 -5,0 -13,0 -21,2 -9,2 -20,6 -33,11 -7,3 -15,6 -23,9 -8,3 -17,7 -25,11 -6,2 -12,5 -18,8 -6,4 -12,7 -18,10 -3,2 -7,5 -12,8 -4,3 -9,7 -13,11 -8,6 -15,13 -22,21 -6,8 -10,16 -12,24 -1,1 -1,3 -1,4 0,1 0,2 0,3 0,4 1,7 2,10 2,4 4,7 7,11 18,19 36,39 54,59 19,20 37,40 55,60 6,6 10,12 12,19 3,8 5,15 6,23 0,1 0,3 0,4 0,2 0,3 0,4 0,8 -1,17 -3,24 -2,8 -4,16 -7,23 -10,22 -23,39 -42,52 -19,14 -41,20 -65,20l-248 0 27 -84c37,0 73,0 110,0 37,0 74,0 111,0 8,0 16,-3 22,-10 7,-6 10,-14 11,-23 -9,-9 -17,-19 -26,-28 -9,-10 -18,-20 -27,-29 -9,-10 -18,-19 -26,-29 -9,-9 -18,-19 -27,-29 -11,-11 -18,-24 -23,-37 -5,-14 -7,-28 -7,-42 1,-37 15,-68 43,-95 28,-26 59,-47 92,-64 11,-5 22,-10 33,-15 11,-4 21,-9 31,-13 11,-3 22,-7 34,-10 13,-3 25,-5 37,-6 2,0 4,0 6,0 2,0 4,0 5,0 15,0 29,2 42,8 12,5 23,14 31,28zm402 247l14 0c16,-15 32,-27 49,-35 8,-5 16,-8 23,-11 8,-3 15,-4 23,-5 3,-1 7,-1 10,-2 3,0 7,0 11,0 23,0 44,6 62,19 18,13 27,31 27,54 0,5 -1,10 -1,14 -1,5 -3,10 -5,16 -5,14 -14,30 -28,46 -14,17 -34,34 -59,52l62 0 49 0c0,-5 2,-27 7,-44 3,-12 7,-22 11,-32 12,-27 27,-49 44,-67 17,-18 35,-31 54,-40 8,-5 15,-8 23,-11 8,-3 15,-4 22,-5 4,-1 7,-1 11,-2 3,0 7,0 11,0 23,0 43,6 61,19 18,13 27,31 27,54 0,5 0,10 -1,14 -1,5 -2,10 -4,16 -5,14 -14,30 -28,46 -15,17 -34,34 -60,52l117 0 -28 84 -184 0c-33,0 -57,-26 -62,0l-43 0 -27 0 -158 0c-15,0 -29,-3 -43,-10 -13,-6 -23,-16 -31,-30 -3,-6 -5,-13 -7,-20 -2,-7 -3,-15 -3,-22 0,-2 0,-4 1,-5 0,-2 0,-5 0,-7 1,-11 4,-23 7,-34 2,-7 5,-14 7,-20l-23 0 0 0 -37 0c-19,32 -40,60 -64,83 -24,23 -51,45 -81,65l-24 0c-1,-1 -2,-2 -3,-4 -1,-1 -2,-2 -3,-3 -6,-9 -11,-17 -17,-26 -5,-8 -10,-17 -14,-27 -11,11 -22,22 -34,31 -12,10 -24,20 -37,29l-25 0c-1,-2 -2,-3 -4,-5 -1,-2 -2,-4 -3,-6 -2,-2 -4,-3 -5,-5 -2,-2 -3,-4 -4,-6 -14,-18 -24,-39 -30,-61 -5,-22 -8,-44 -8,-67 0,-3 0,-7 0,-10 0,-4 0,-7 1,-11 1,-17 3,-35 7,-52 4,-18 9,-35 16,-51l87 0c-2,7 -5,15 -7,23 -3,8 -5,15 -7,23 -4,16 -7,30 -9,44 -3,15 -4,26 -4,36 0,4 0,8 0,11 0,4 1,8 1,11 0,2 1,4 1,6 0,1 1,3 1,5 9,-10 18,-20 26,-30 7,-10 15,-21 22,-32 1,-16 4,-33 8,-49 4,-16 9,-32 14,-48l90 0c-4,11 -8,22 -12,34 -4,12 -7,23 -10,35 -2,11 -4,21 -5,32 -1,10 -2,20 -2,29 0,6 1,11 2,17 1,5 1,10 2,15 10,-10 20,-20 29,-31 9,-11 17,-22 24,-34 -2,-3 -3,-5 -4,-8 -1,-2 -2,-5 -3,-8 -1,-3 -1,-6 -2,-8 0,-3 0,-6 0,-8 0,-13 3,-25 11,-36 7,-10 16,-19 27,-27 14,-9 29,-14 44,-15 14,-1 30,-1 46,-1 2,0 5,0 9,0 3,0 6,0 8,0 -2,9 -5,18 -8,28 -4,9 -7,19 -9,28l61 0 0 0zm1941 148l12 0c0,-1 0,-2 0,-3 1,-2 1,-5 1,-7 1,-11 3,-23 7,-34 4,-12 7,-22 11,-32 12,-27 27,-49 44,-67 17,-18 35,-31 54,-40 8,-5 15,-8 23,-11 8,-3 15,-4 22,-5 4,-1 7,-1 11,-2 3,0 7,0 11,0 23,0 43,6 61,19 18,13 27,31 27,54 0,5 0,10 -1,14 -1,5 -2,10 -4,16 -5,14 -14,30 -28,46 -14,17 -34,34 -60,52l72 0 45 0 19 0 33 0 25 0c15,0 26,-3 33,-10 7,-7 10,-18 10,-34 0,-8 0,-15 -2,-22 -2,-7 -4,-14 -7,-19 -11,14 -20,27 -27,37 -8,11 -12,16 -12,17l-68 -49c0,0 7,-9 19,-26 12,-16 25,-35 41,-55 14,-21 27,-39 39,-56 13,-17 19,-26 19,-27l75 38c0,0 -3,5 -10,14 -6,9 -14,20 -23,33 13,16 23,34 30,54 7,20 10,40 10,61 0,38 -11,69 -34,93 -24,23 -54,35 -93,35l-25 0 -60 0 -20 0 -17 0 -167 0c-9,0 -18,-1 -26,-3l0 3 -96 0 0 -5 -2 5 -35 0c0,0 -1,0 -2,0 -1,0 -1,0 -2,0 -16,0 -32,-4 -47,-12 -16,-7 -27,-19 -34,-36l-22 -50 -32 98 -35 0 -53 0 -8 0 -36 0 -46 0c-9,0 -17,-1 -25,-4 -7,-3 -14,-7 -20,-11 -8,5 -18,9 -28,13 -9,3 -19,5 -29,6 -3,1 -7,1 -10,2 -3,0 -7,0 -10,0 -18,0 -34,-4 -50,-12 -2,-1 -4,-2 -6,-3l0 9 -97 0 0 -1 -46 0c-17,0 -36,0 -54,0 -19,0 -38,0 -56,0 -18,0 -34,0 -48,0 -39,0 -70,-13 -92,-39 -23,-26 -34,-58 -34,-96 0,-4 0,-7 1,-10 0,-4 0,-7 0,-10 5,-52 25,-103 60,-152 35,-50 73,-92 114,-126 6,-5 12,-10 18,-15 6,-5 12,-9 18,-14 2,-1 3,-2 5,-3 1,-1 3,-2 4,-3 16,-11 34,-21 53,-30 18,-10 38,-16 58,-20 5,-1 10,-2 16,-2 5,-1 11,-1 16,-1 12,0 24,1 36,5 11,3 22,9 33,17 13,9 21,19 26,30 5,12 8,24 8,37 0,4 0,8 -1,12 0,5 -1,9 -2,13 -3,13 -8,26 -14,39 -6,12 -13,24 -19,35 -9,13 -19,26 -30,40 -11,14 -23,27 -36,41 -19,20 -39,40 -61,60 -22,19 -45,38 -67,55 -1,1 -2,1 -2,2 -1,1 -2,2 -3,2l-51 -66c18,-14 37,-29 54,-45 18,-15 35,-31 51,-47 15,-15 29,-30 41,-45 13,-14 23,-29 32,-42 2,-1 3,-4 6,-7 2,-4 4,-8 6,-13 1,-2 1,-3 2,-4 1,-1 1,-2 2,-3 3,-5 5,-10 6,-15 2,-5 3,-8 3,-11 0,0 0,0 0,0 0,0 0,0 0,0 -1,-1 -1,-1 -1,-1 0,0 0,0 0,0 -3,-3 -7,-5 -10,-6 -4,-1 -8,-1 -13,-1 -5,0 -11,1 -17,2 -6,1 -12,3 -17,6 -7,2 -13,5 -19,8 -6,3 -11,6 -17,9 -6,4 -12,8 -17,11 -5,4 -9,6 -13,9 -7,5 -16,12 -25,19 -8,7 -17,15 -25,23 -25,23 -48,48 -69,77 -21,29 -37,59 -47,89 -2,9 -4,17 -6,25 -1,9 -2,17 -2,26 0,15 3,27 9,37 6,10 17,14 32,14 16,0 34,0 55,0 20,0 41,0 61,0 21,0 42,0 62,0 21,0 39,0 54,0l0 1 28 0 0 -3c0,-15 3,-29 9,-43 6,-14 13,-27 22,-39 28,-38 63,-65 105,-80 42,-16 86,-24 131,-25 2,0 4,0 6,0 2,0 4,0 6,0l0 84c-18,0 -36,2 -54,4 -18,2 -35,6 -51,13 -15,5 -29,12 -42,21 -12,9 -24,20 -33,33 -1,1 -2,2 -3,4 -1,2 -2,4 -3,6 -1,2 -2,3 -3,5 -1,2 -2,4 -3,6 -1,2 -1,4 -2,6 0,2 -1,4 -1,6 0,2 1,4 3,6 1,2 4,3 8,3 22,0 39,-7 49,-22 11,-15 20,-31 26,-48 1,-4 2,-8 3,-11 1,-4 2,-7 4,-10l79 26 -19 58 28 0 63 0 8 0 141 -437 88 0 -101 313 114 -85 50 68 -124 91 21 49c1,0 3,1 5,1 2,0 4,0 6,0l37 0 26 0zm-1809 -119c-21,1 -38,9 -54,24 -15,14 -26,30 -34,48 0,0 0,1 0,1 0,0 0,1 0,1 26,-15 45,-29 59,-41 14,-13 24,-24 29,-33zm289 0c-20,1 -38,9 -53,24 -15,14 -27,30 -34,48 0,0 0,1 0,1 -1,0 -1,1 -1,1 26,-15 46,-29 60,-41 14,-13 23,-24 28,-33zm308 -71l-28 84 -44 0 -35 106 101 0 -27 84 -95 0c-21,0 -37,-7 -50,-20 -12,-14 -19,-30 -19,-48 0,-2 0,-3 1,-5 0,-2 0,-4 0,-7 1,-2 1,-4 2,-6 0,-2 1,-4 1,-6l33 -98 -48 0 28 -84 47 0 32 -99 79 26 -23 73 45 0zm1409 71c-20,1 -38,9 -53,24 -15,14 -27,30 -34,48 0,0 0,1 0,1 -1,0 -1,1 -1,1 26,-15 46,-29 60,-41 14,-13 23,-24 28,-33z"/>
   <path class="fil4" d="M5000 7947c-1628,0 -2947,-1319 -2947,-2947 0,-1628 1319,-2947 2947,-2947 1628,0 2947,1319 2947,2947 0,1628 -1319,2947 -2947,2947zm0 -5730c397,0 734,257 853,614 91,-126 239,-208 406,-208 276,0 500,224 500,500 0,51 -8,99 -21,145 47,-14 97,-22 148,-22 277,0 500,224 500,500 0,166 -81,313 -206,404 351,123 603,457 603,850 0,395 -255,731 -609,852 126,91 207,238 207,405 0,276 -224,500 -500,500 -50,0 -99,-7 -145,-21 15,47 23,97 23,149 0,276 -224,500 -500,500 -168,0 -317,-83 -407,-210 -122,354 -457,608 -852,608 -394,0 -729,-253 -851,-606 -91,123 -237,202 -401,202 -277,0 -500,-223 -500,-500 0,-50 7,-99 21,-144 -47,14 -97,22 -149,22 -276,0 -500,-224 -500,-500 0,-166 81,-314 207,-405 -355,-121 -610,-457 -610,-852 0,-396 256,-732 611,-852 -123,-92 -203,-238 -203,-402 0,-276 224,-500 500,-500 51,0 99,7 145,21 -15,-47 -22,-97 -22,-149 0,-276 223,-500 500,-500 164,0 311,80 402,203 122,-351 457,-604 850,-604z"/>
   <path class="fil5" d="M5204 3082c25,55 -101,67 -137,71 0,2 0,4 0,7 0,12 -3,25 -8,35 29,21 60,44 103,54 106,25 89,-189 23,-191 -39,-1 -109,40 -130,60 1,2 2,4 3,6 27,-18 118,-83 146,-42z"/>
   <path class="fil1" d="M5204 3082c25,55 -101,67 -137,71 0,2 0,4 0,7 0,12 -3,25 -8,35 29,21 60,44 103,54 106,25 89,-189 23,-191 -39,-1 -109,40 -130,60 1,2 2,4 3,6 27,-18 118,-83 146,-42zm-408 0c-25,55 101,67 137,71 0,2 0,4 0,7 0,12 3,25 8,35 -29,21 -60,44 -103,54 -106,25 -89,-189 -23,-191 39,-1 109,40 130,60 -1,2 -2,4 -3,6 -27,-18 -118,-83 -146,-42z"/>
   <path class="fil6" d="M5086 2969c-5,5 -7,17 -12,23 -21,26 -46,62 -60,150l-33 2c35,-81 58,-159 105,-175z"/>
   <circle class="fil7" cx="5000" cy="3162" r="49"/>
   <path class="fil3" d="M4278 4015l158 0 0 557 -218 0c-1,-5 -2,-9 -2,-14l0 0 0 0 0 -1 0 -477c0,-36 28,-65 62,-65zm377 0l220 0 0 557 -220 0 0 -557zm440 0l219 0 0 557 -219 0 0 -557zm439 0l158 0c34,0 61,29 61,65l0 477 0 1 0 0 0 0c0,5 0,9 -1,14l-218 0 0 -557z"/>
  </g>
  <rect class="fil8" width="10000" height="10000"/>
 </g>
</svg>
